<svg width="26" height="26" viewBox="0 0 26 26" fill="none" xmlns="http://www.w3.org/2000/svg">
<g clip-path="url(#clip0_1197_2870)">
<path d="M12.442 10.1509C12.6207 9.61465 13.378 9.61465 13.5567 10.1509L14.6048 13.2985C14.8355 13.9904 15.2242 14.6191 15.7401 15.1347C16.256 15.6503 16.8849 16.0387 17.577 16.269L20.723 17.3171C21.2592 17.4959 21.2592 18.2531 20.723 18.4319L17.5753 19.48C16.8834 19.7107 16.2547 20.0994 15.7391 20.6153C15.2235 21.1312 14.8352 21.7601 14.6048 22.4521L13.5567 25.5981C13.5182 25.7156 13.4435 25.8178 13.3434 25.8903C13.2433 25.9628 13.1229 26.0018 12.9993 26.0018C12.8757 26.0018 12.7553 25.9628 12.6552 25.8903C12.5551 25.8178 12.4805 25.7156 12.442 25.5981L11.3938 22.4505C11.1633 21.7588 10.7748 21.1302 10.2592 20.6146C9.74365 20.099 9.11508 19.7106 8.42333 19.48L5.2757 18.4319C5.15828 18.3934 5.05602 18.3187 4.98353 18.2186C4.91103 18.1185 4.872 17.9981 4.872 17.8745C4.872 17.7509 4.91103 17.6305 4.98353 17.5304C5.05602 17.4303 5.15828 17.3557 5.2757 17.3171L8.42333 16.269C9.11508 16.0385 9.74365 15.65 10.2592 15.1344C10.7748 14.6188 11.1633 13.9903 11.3938 13.2985L12.442 10.1509ZM6.16458 1.86502C6.18788 1.79465 6.23277 1.73341 6.29286 1.69001C6.35295 1.6466 6.4252 1.62324 6.49933 1.62324C6.57346 1.62324 6.6457 1.6466 6.70579 1.69001C6.76589 1.73341 6.81077 1.79465 6.83408 1.86502L7.46295 3.75327C7.74408 4.59502 8.40383 5.25477 9.24558 5.5359L11.1338 6.16477C11.2042 6.18807 11.2654 6.23296 11.3088 6.29305C11.3522 6.35315 11.3756 6.42539 11.3756 6.49952C11.3756 6.57365 11.3522 6.64589 11.3088 6.70599C11.2654 6.76608 11.2042 6.81097 11.1338 6.83427L9.24558 7.46314C8.83043 7.60146 8.4532 7.83456 8.14378 8.14398C7.83437 8.4534 7.60127 8.83062 7.46295 9.24577L6.83408 11.134C6.81077 11.2044 6.76589 11.2656 6.70579 11.309C6.6457 11.3524 6.57346 11.3758 6.49933 11.3758C6.4252 11.3758 6.35295 11.3524 6.29286 11.309C6.23277 11.2656 6.18788 11.2044 6.16458 11.134L5.5357 9.24577C5.39739 8.83062 5.16428 8.4534 4.85487 8.14398C4.54545 7.83456 4.16822 7.60146 3.75308 7.46314L1.86483 6.83427C1.79445 6.81097 1.73322 6.76608 1.68981 6.70599C1.64641 6.64589 1.62305 6.57365 1.62305 6.49952C1.62305 6.42539 1.64641 6.35315 1.68981 6.29305C1.73322 6.23296 1.79445 6.18807 1.86483 6.16477L3.75308 5.5359C4.16822 5.39758 4.54545 5.16448 4.85487 4.85506C5.16428 4.54565 5.39739 4.16842 5.5357 3.75327L6.16458 1.86502ZM17.6517 0.160395C17.6677 0.114125 17.6978 0.0740033 17.7377 0.0456075C17.7776 0.0172117 17.8254 0.00195312 17.8743 0.00195312C17.9233 0.00195313 17.9711 0.0172117 18.011 0.0456075C18.0508 0.0740033 18.0809 0.114125 18.097 0.160395L18.5162 1.41814C18.7031 1.98039 19.1435 2.42077 19.7057 2.60764L20.9635 3.02689C21.0097 3.04294 21.0498 3.073 21.0782 3.11289C21.1066 3.15279 21.1219 3.20055 21.1219 3.24952C21.1219 3.29849 21.1066 3.34625 21.0782 3.38614C21.0498 3.42604 21.0097 3.4561 20.9635 3.47215L19.7057 3.8914C19.4286 3.98357 19.1768 4.13907 18.9704 4.34555C18.7639 4.55204 18.6084 4.80381 18.5162 5.0809L18.097 6.33865C18.0809 6.38491 18.0508 6.42504 18.011 6.45343C17.9711 6.48183 17.9233 6.49709 17.8743 6.49709C17.8254 6.49709 17.7776 6.48183 17.7377 6.45343C17.6978 6.42504 17.6677 6.38491 17.6517 6.33865L17.2324 5.0809C17.1403 4.80381 16.9848 4.55204 16.7783 4.34555C16.5718 4.13907 16.32 3.98357 16.043 3.8914L14.7868 3.47215C14.7406 3.4561 14.7004 3.42604 14.672 3.38614C14.6436 3.34625 14.6284 3.29849 14.6284 3.24952C14.6284 3.20055 14.6436 3.15279 14.672 3.11289C14.7004 3.073 14.7406 3.04294 14.7868 3.02689L16.0446 2.60764C16.6068 2.42077 17.0472 1.98039 17.2341 1.41814L17.6517 0.16202V0.160395Z" fill="url(#paint0_linear_1197_2870)"/>
</g>
<defs>
<linearGradient id="paint0_linear_1197_2870" x1="11.3741" y1="0.00195312" x2="11.3741" y2="26.0018" gradientUnits="userSpaceOnUse">
<stop stop-color="#0AB2EA"/>
<stop offset="1" stop-color="#0489B5"/>
</linearGradient>
<clipPath id="clip0_1197_2870">
<rect width="26" height="26" fill="white"/>
</clipPath>
</defs>
</svg>
