<svg width="16" height="22" viewBox="0 0 16 22" fill="none" xmlns="http://www.w3.org/2000/svg">
<path d="M2.78937 1.26801L4.21223 0.839435C4.85993 0.644027 5.55661 0.691005 6.17222 0.9716C6.78782 1.2522 7.28028 1.74723 7.55766 2.36429L8.44309 4.33401C8.68167 4.86463 8.74814 5.45664 8.63315 6.02696C8.51816 6.59728 8.2275 7.11728 7.80194 7.51401L6.2548 8.95658C6.23568 8.97444 6.21999 8.99564 6.20851 9.01915C6.04651 9.35001 6.29251 10.2337 7.06309 11.5691C7.93223 13.0743 8.60337 13.6691 8.91452 13.5774L10.9451 12.956C11.5012 12.7862 12.0965 12.7946 12.6475 12.9802C13.1986 13.1657 13.6778 13.519 14.0179 13.9906L15.2762 15.7331C15.6713 16.2803 15.8543 16.9522 15.7912 17.6241C15.7281 18.296 15.4233 18.9222 14.9334 19.3863L13.8508 20.4106C13.4743 20.7672 13.0172 21.0274 12.5184 21.169C12.0196 21.3107 11.4939 21.3295 10.9862 21.224C7.97166 20.5966 5.2708 18.1691 2.86051 13.9949C0.449371 9.81801 -0.302344 6.26086 0.666228 3.33544C0.828362 2.84567 1.106 2.40212 1.4757 2.04228C1.84539 1.68243 2.29541 1.41686 2.78937 1.26801ZM3.16137 2.49886C2.86498 2.58814 2.59443 2.74744 2.37259 2.96332C2.15074 3.1792 1.98412 3.4453 1.8868 3.73915C1.05194 6.26001 1.72823 9.46229 3.97394 13.352C6.21794 17.2391 8.65051 19.4249 11.2477 19.9649C11.5524 20.0282 11.868 20.0169 12.1674 19.9318C12.4668 19.8467 12.7412 19.6904 12.9671 19.4763L14.0488 18.4529C14.3127 18.203 14.477 17.8659 14.511 17.5041C14.5451 17.1423 14.4466 16.7804 14.2339 16.4857L12.9757 14.7423C12.7925 14.4884 12.5346 14.2982 12.2379 14.1983C11.9413 14.0984 11.6208 14.0938 11.3214 14.1852L9.28566 14.8083C8.15937 15.1434 7.09994 14.2049 5.94966 12.2111C4.97509 10.5243 4.63737 9.30544 5.05394 8.45429C5.13451 8.28972 5.24423 8.14143 5.37794 8.01629L6.92509 6.57372C7.15432 6.3601 7.3109 6.08007 7.37286 5.77291C7.43481 5.46576 7.39902 5.14692 7.27051 4.86115L6.38509 2.89229C6.23573 2.55994 5.97052 2.29332 5.63896 2.14221C5.30741 1.9911 4.93219 1.96584 4.58337 2.07115L3.16051 2.49972L3.16137 2.49886Z" fill="white" fill-opacity="0.7"/>
</svg>
